<?xml version="1.0" encoding="UTF-8" standalone="no"?>
<!-- Generator: Adobe Illustrator 18.1.1, SVG Export Plug-In . SVG Version: 6.00 Build 0)  -->

<svg
   xmlns:dc="http://purl.org/dc/elements/1.1/"
   xmlns:cc="http://creativecommons.org/ns#"
   xmlns:rdf="http://www.w3.org/1999/02/22-rdf-syntax-ns#"
   xmlns:svg="http://www.w3.org/2000/svg"
   xmlns="http://www.w3.org/2000/svg"
   xmlns:sodipodi="http://sodipodi.sourceforge.net/DTD/sodipodi-0.dtd"
   xmlns:inkscape="http://www.inkscape.org/namespaces/inkscape"
   version="1.1"
   id="Capa_1"
   x="0px"
   y="0px"
   viewBox="0 0 60 60"
   xml:space="preserve"
   inkscape:version="0.48.4 r9939"
   width="100%"
   height="100%"
   sodipodi:docname="icon.svg"
   inkscape:export-filename="/home/ivajo26/Projects/encasa/icons/export_png/add.png"
   inkscape:export-xdpi="90"
   inkscape:export-ydpi="90"><metadata
     id="metadata45"><rdf:RDF><cc:Work
         rdf:about=""><dc:format>image/svg+xml</dc:format><dc:type
           rdf:resource="http://purl.org/dc/dcmitype/StillImage" /><dc:title></dc:title></cc:Work></rdf:RDF></metadata><defs
     id="defs43" /><sodipodi:namedview
     pagecolor="#ffffff"
     bordercolor="#666666"
     borderopacity="1"
     objecttolerance="10"
     gridtolerance="10"
     guidetolerance="10"
     inkscape:pageopacity="0"
     inkscape:pageshadow="2"
     inkscape:window-width="1366"
     inkscape:window-height="713"
     id="namedview41"
     showgrid="false"
     inkscape:zoom="8.3192329"
     inkscape:cx="24.80436"
     inkscape:cy="14.13532"
     inkscape:window-x="0"
     inkscape:window-y="30"
     inkscape:window-maximized="1"
     inkscape:current-layer="Capa_1" /><g
     id="g3"
     transform="matrix(2.1150592,0,0,2.1150592,7.0642926e-8,-0.00105722)"
     style="fill:#0a90ea;fill-opacity:1"><g
       id="g5"
       style="fill:#0a90ea;fill-opacity:1"><path
         d="m 20.748,11.321 c -0.062,-0.179 -0.13,-0.351 -0.229,-0.525 l -0.147,-0.257 c 0.333,-0.47 0.523,-0.98 0.523,-1.508 V 6.022 c 0,-0.405 -0.114,-0.819 -0.34,-1.23 L 20.482,4.664 c 0.096,-0.217 0.157,-0.441 0.157,-0.676 0,-2.433 -5.253,-3.743 -10.194,-3.743 -4.94,0 -10.194,1.311 -10.194,3.744 0,0.237 0.063,0.458 0.157,0.676 L 0.338,4.792 C 0.11,5.203 0,5.617 0,6.022 V 9.03 c 0,0.528 0.186,1.035 0.522,1.508 l -0.15,0.257 C 0.124,11.22 0,11.655 0,12.083 v 3.009 c 0,0.513 0.175,1.011 0.493,1.472 L 0.372,16.777 C 0.124,17.203 0,17.638 0,18.062 v 3.009 c 0,2.672 4.589,4.768 10.445,4.768 1.198,0 2.341,-0.094 3.4,-0.257 0.042,-0.002 0.065,-0.007 0.094,-0.01 1.527,1.567 3.646,2.552 6,2.552 4.647,0 8.429,-3.782 8.429,-8.427 0.001,-4.378 -3.351,-7.968 -7.62,-8.376 z M 10.445,1.364 c 5.623,0 9.076,1.527 9.076,2.625 0,1.097 -3.454,2.625 -9.076,2.625 C 4.824,6.614 1.37,5.086 1.37,3.989 1.37,2.891 4.823,1.364 10.445,1.364 z M 1.119,6.528 c 1.675,1.421 5.56,2.156 9.326,2.156 3.765,0 7.652,-0.735 9.329,-2.156 V 9.03 c 0,1.726 -3.831,3.647 -9.329,3.647 -5.493,0 -9.326,-1.922 -9.326,-3.647 0,0 0,-2.502 0,-2.502 z m 0,5.734 c 1.715,1.57 5.244,2.574 9.326,2.574 0.971,0 1.891,-0.077 2.78,-0.185 -0.685,0.908 -1.207,1.944 -1.477,3.086 -0.077,0.312 -0.135,0.63 -0.173,0.952 -0.375,0.02 -0.737,0.052 -1.13,0.052 -5.493,0 -9.326,-1.924 -9.326,-3.647 0,-10e-4 0,-2.832 0,-2.832 z m 9.326,12.458 c -5.493,0 -9.326,-1.922 -9.326,-3.65 v -2.827 c 1.715,1.57 5.244,2.568 9.326,2.568 0.389,0 0.766,-0.021 1.144,-0.044 0.129,1.022 0.439,1.993 0.904,2.866 0.173,0.325 0.373,0.627 0.586,0.925 -0.826,0.099 -1.702,0.162 -2.634,0.162 z m 9.495,1.729 c -1.946,0 -3.699,-0.835 -4.934,-2.159 -0.275,-0.295 -0.528,-0.619 -0.75,-0.961 -0.676,-1.052 -1.071,-2.295 -1.071,-3.63 0,-0.021 0.006,-0.038 0.006,-0.058 0.004,-0.394 0.042,-0.773 0.109,-1.147 0.065,-0.344 0.151,-0.68 0.264,-1.004 0.825,-2.377 2.94,-4.154 5.512,-4.489 0.284,-0.034 0.572,-0.058 0.865,-0.058 0.085,0 0.167,0.008 0.252,0.014 3.607,0.137 6.5,3.101 6.5,6.74 -0.001,3.722 -3.03,6.752 -6.753,6.752 z"
         id="path7"
         inkscape:connector-curvature="0"
         style="fill:#0a90ea;fill-opacity:1" /><path
         d="m 24.476,18.155 h -2.991 v -2.963 c 0,-0.064 -0.052,-0.119 -0.119,-0.119 h -2.705 c -0.065,0 -0.121,0.055 -0.121,0.119 v 2.963 h -3.027 c -0.063,0 -0.115,0.056 -0.115,0.118 v 2.708 c 0,0.064 0.052,0.118 0.115,0.118 h 3.027 v 3.054 c 0,0.067 0.056,0.119 0.121,0.119 h 2.705 c 0.067,0 0.119,-0.052 0.119,-0.119 v -3.054 h 2.991 c 0.065,0 0.119,-0.054 0.119,-0.118 v -2.708 c 0.001,-0.062 -0.053,-0.118 -0.119,-0.118 z"
         id="path9"
         inkscape:connector-curvature="0"
         style="fill:#0a90ea;fill-opacity:1" /></g></g><g
     id="g11"
     transform="translate(0,31.632)" /><g
     id="g13"
     transform="translate(0,31.632)" /><g
     id="g15"
     transform="translate(0,31.632)" /><g
     id="g17"
     transform="translate(0,31.632)" /><g
     id="g19"
     transform="translate(0,31.632)" /><g
     id="g21"
     transform="translate(0,31.632)" /><g
     id="g23"
     transform="translate(0,31.632)" /><g
     id="g25"
     transform="translate(0,31.632)" /><g
     id="g27"
     transform="translate(0,31.632)" /><g
     id="g29"
     transform="translate(0,31.632)" /><g
     id="g31"
     transform="translate(0,31.632)" /><g
     id="g33"
     transform="translate(0,31.632)" /><g
     id="g35"
     transform="translate(0,31.632)" /><g
     id="g37"
     transform="translate(0,31.632)" /><g
     id="g39"
     transform="translate(0,31.632)" /></svg>