<?xml version="1.0" encoding="UTF-8" standalone="no"?>
<!-- Generator: Adobe Illustrator 18.1.1, SVG Export Plug-In . SVG Version: 6.00 Build 0)  -->

<svg
   xmlns:dc="http://purl.org/dc/elements/1.1/"
   xmlns:cc="http://creativecommons.org/ns#"
   xmlns:rdf="http://www.w3.org/1999/02/22-rdf-syntax-ns#"
   xmlns:svg="http://www.w3.org/2000/svg"
   xmlns="http://www.w3.org/2000/svg"
   xmlns:sodipodi="http://sodipodi.sourceforge.net/DTD/sodipodi-0.dtd"
   xmlns:inkscape="http://www.inkscape.org/namespaces/inkscape"
   version="1.1"
   id="Capa_1"
   x="0px"
   y="0px"
   viewBox="0 0 60 60"
   xml:space="preserve"
   inkscape:version="0.48.4 r9939"
   width="100%"
   height="100%"
   sodipodi:docname="adecuaciones.svg"
   inkscape:export-filename="/home/ivajo26/Projects/encasa/encasa_fincaraiz/icons/adecuaciones.png"
   inkscape:export-xdpi="90"
   inkscape:export-ydpi="90"><metadata
     id="metadata49"><rdf:RDF><cc:Work
         rdf:about=""><dc:format>image/svg+xml</dc:format><dc:type
           rdf:resource="http://purl.org/dc/dcmitype/StillImage" /><dc:title></dc:title></cc:Work></rdf:RDF></metadata><defs
     id="defs47" /><sodipodi:namedview
     pagecolor="#ffffff"
     bordercolor="#666666"
     borderopacity="1"
     objecttolerance="10"
     gridtolerance="10"
     guidetolerance="10"
     inkscape:pageopacity="0"
     inkscape:pageshadow="2"
     inkscape:window-width="1366"
     inkscape:window-height="713"
     id="namedview45"
     showgrid="false"
     inkscape:zoom="12.751492"
     inkscape:cx="27.549462"
     inkscape:cy="30.374581"
     inkscape:window-x="0"
     inkscape:window-y="30"
     inkscape:window-maximized="1"
     inkscape:current-layer="Capa_1" /><g
     id="g3"
     transform="matrix(3.7021039,0,0,3.7021039,1.04635e-6,-0.00143866)"
     style="fill:#0a90ea;fill-opacity:1"><g
       id="g5"
       style="fill:#0a90ea;fill-opacity:1"><path
         style="fill:#0a90ea;fill-opacity:1"
         d="M 40.59375 4.3125 C 38.919488 4.3833606 37.78125 4.9375 37.78125 4.9375 L 38.375 16.34375 L 35.96875 7.3125 C 33.932593 7.8789219 32.133825 8.7877789 30.59375 9.96875 C 34.07743 12.919327 36.262955 17.113223 36.78125 22 L 56.875 22 C 56.875 14.680941 52.605425 9.1857646 45.875 7.3125 L 43.46875 16.34375 L 44.0625 4.9375 C 42.810263 4.3932907 41.598307 4.2699837 40.59375 4.3125 z M 40.53125 16.125 L 42.6875 16.15625 L 41.46875 18.3125 L 43.125 18.375 L 39.53125 21.375 L 40.71875 18.96875 L 39.0625 18.9375 L 40.53125 16.125 z "
         transform="matrix(0.27011668,0,0,0.27011668,-2.8263658e-7,3.8860606e-4)"
         id="path7"
         inkscape:export-filename="/home/ivajo26/Projects/encasa/encasa_fincaraiz/icons/export_png/adecuaciones.png"
         inkscape:export-xdpi="90"
         inkscape:export-ydpi="90" /><path
         style="fill:#0a90ea;fill-opacity:1"
         d="M 16.206,6.293 H 9.855 v 0.283 l 0.962,0.016 -10e-4,1.521 H 9.738 C 9.714,8.398 9.671,9.237 9.626,9.457 c 0.142,0.456 0.123,1.025 -0.058,1.7 -0.06,0.323 -0.177,0.622 -0.345,0.877 -0.111,0.469 -0.291,0.914 -0.521,1.33 0.646,0.653 1.462,1.072 2.271,1.072 1.682,0 3.356,-1.56 3.703,-3.428 0.121,-0.137 0.251,-0.354 0.303,-0.681 0.126,-0.458 0.223,-1.061 -0.011,-1.396 0.077,-0.297 0.153,-0.691 0.176,-1.129 0.03,-0.072 0.033,-0.153 0.005,-0.229 0,-0.042 0,-0.081 -10e-4,-0.11 l 0.003,-0.047 c 10e-4,-0.023 0,-0.047 -0.004,-0.071 L 15.104,7.108 h 1.103 V 6.293 h -0.001 z"
         id="path9"
         inkscape:connector-curvature="0" /><path
         style="fill:#0a90ea;fill-opacity:1"
         d="M 18.375 6.5625 C 16.700919 6.6331798 15.5625 7.1875 15.5625 7.1875 L 16.15625 18.59375 L 13.71875 9.59375 C 6.9920272 11.463312 2.75 16.930941 2.75 24.25 L 34.625 24.25 C 34.625 16.934643 30.382973 11.467015 23.65625 9.59375 L 21.21875 18.59375 L 21.8125 7.1875 C 20.558875 6.644679 19.379449 6.5200921 18.375 6.5625 z M 17.625 18.53125 L 19.78125 18.5625 L 18.5625 20.71875 L 20.25 20.78125 L 16.625 23.75 L 17.8125 21.34375 L 16.15625 21.3125 L 17.625 18.53125 z "
         transform="matrix(0.27011668,0,0,0.27011668,-2.8263658e-7,3.8860606e-4)"
         id="path11" /><path
         style="fill:#0a90ea;fill-opacity:1"
         d="M 8.961,9.543 C 9.038,9.246 9.114,8.85 9.136,8.414 9.167,8.342 9.17,8.261 9.142,8.185 c 0,-0.043 0,-0.08 -10e-4,-0.11 L 9.144,8.027 C 9.145,8.004 9.144,7.98 9.138,7.956 L 9.097,7.72 H 10.2 V 6.906 H 0 V 7.72 H 1.118 L 1.115,7.992 c 0,0.001 0,0.096 0,0.153 C 1.047,8.354 1.066,8.487 1.25,9.46 1.23,9.481 1.21,9.503 1.193,9.527 0.928,9.879 1.059,10.543 1.166,10.92 c 0.055,0.335 0.182,0.556 0.302,0.694 0.305,1.84 1.918,3.433 3.5,3.433 1.682,0 3.356,-1.56 3.703,-3.427 C 8.792,11.481 8.92,11.266 8.974,10.938 9.097,10.481 9.194,9.879 8.961,9.543 z"
         id="path13"
         inkscape:connector-curvature="0" /></g></g><g
     id="g15"
     transform="translate(0,43.793)" /><g
     id="g17"
     transform="translate(0,43.793)" /><g
     id="g19"
     transform="translate(0,43.793)" /><g
     id="g21"
     transform="translate(0,43.793)" /><g
     id="g23"
     transform="translate(0,43.793)" /><g
     id="g25"
     transform="translate(0,43.793)" /><g
     id="g27"
     transform="translate(0,43.793)" /><g
     id="g29"
     transform="translate(0,43.793)" /><g
     id="g31"
     transform="translate(0,43.793)" /><g
     id="g33"
     transform="translate(0,43.793)" /><g
     id="g35"
     transform="translate(0,43.793)" /><g
     id="g37"
     transform="translate(0,43.793)" /><g
     id="g39"
     transform="translate(0,43.793)" /><g
     id="g41"
     transform="translate(0,43.793)" /><g
     id="g43"
     transform="translate(0,43.793)" /></svg>