<?xml version="1.0" encoding="UTF-8" standalone="no"?>
<!-- Generator: Adobe Illustrator 16.0.0, SVG Export Plug-In . SVG Version: 6.00 Build 0)  -->

<svg
   xmlns:dc="http://purl.org/dc/elements/1.1/"
   xmlns:cc="http://creativecommons.org/ns#"
   xmlns:rdf="http://www.w3.org/1999/02/22-rdf-syntax-ns#"
   xmlns:svg="http://www.w3.org/2000/svg"
   xmlns="http://www.w3.org/2000/svg"
   xmlns:sodipodi="http://sodipodi.sourceforge.net/DTD/sodipodi-0.dtd"
   xmlns:inkscape="http://www.inkscape.org/namespaces/inkscape"
   version="1.1"
   id="Capa_1"
   x="0px"
   y="0px"
   width="60"
   height="60"
   viewBox="0 0 60 60"
   xml:space="preserve"
   inkscape:version="0.48.4 r9939"
   sodipodi:docname="camera.svg"
   inkscape:export-filename="/home/ivajo26/Projects/encasa/icons/export_png/camera.png"
   inkscape:export-xdpi="90"
   inkscape:export-ydpi="90"><metadata
     id="metadata3047"><rdf:RDF><cc:Work
         rdf:about=""><dc:format>image/svg+xml</dc:format><dc:type
           rdf:resource="http://purl.org/dc/dcmitype/StillImage" /><dc:title></dc:title></cc:Work></rdf:RDF></metadata><defs
     id="defs3045" /><sodipodi:namedview
     pagecolor="#ffffff"
     bordercolor="#666666"
     borderopacity="1"
     objecttolerance="10"
     gridtolerance="10"
     guidetolerance="10"
     inkscape:pageopacity="0"
     inkscape:pageshadow="2"
     inkscape:window-width="1366"
     inkscape:window-height="713"
     id="namedview3043"
     showgrid="false"
     inkscape:zoom="0.70573951"
     inkscape:cx="-48.176415"
     inkscape:cy="167.2005"
     inkscape:window-x="0"
     inkscape:window-y="30"
     inkscape:window-maximized="1"
     inkscape:current-layer="Capa_1" /><g
     id="g3001"
     style="fill:#0a90ea;fill-opacity:1"
     transform="matrix(0.17942476,0,0,0.17942476,7.0324e-7,-8.900914e-5)"><g
       id="g3003"
       style="fill:#0a90ea;fill-opacity:1"><g
         id="g3005"
         style="fill:#0a90ea;fill-opacity:1"><path
           d="m 208.907,131.4 c -27.334,0 -49.582,22.242 -49.582,49.581 0,27.328 22.248,49.582 49.582,49.582 27.334,0 49.569,-22.254 49.569,-49.582 10e-4,-27.345 -22.229,-49.581 -49.569,-49.581 z"
           id="path3007"
           style="fill:#0a90ea;fill-opacity:1"
           inkscape:connector-curvature="0" /></g><g
         id="g3009"
         style="fill:#0a90ea;fill-opacity:1"><path
           d="M 290.14,70.92 H 268.943 L 242.029,45.7 h -74.718 l -21.854,25.22 h -45.12 C 98.319,62.588 92.855,56.902 86.313,56.902 H 54.418 c -6.575,0 -12.084,5.755 -14.057,14.192 C 17.771,73.073 0,92.099 0,115.188 v 129.247 c 0,24.409 19.855,44.268 44.271,44.268 H 290.14 c 24.416,0 44.262,-19.858 44.262,-44.268 V 115.188 C 334.401,90.784 314.556,70.92 290.14,70.92 z M 40.04,232.869 c 0,4.612 -3.756,8.353 -8.374,8.353 -4.618,0 -8.362,-3.74 -8.362,-8.353 v -88.24 c 0,-4.618 3.744,-8.365 8.362,-8.365 4.618,0 8.374,3.747 8.374,8.365 v 88.24 z M 90.363,103.598 c 0,4.87 -3.966,8.821 -8.83,8.821 H 58.85 c -4.87,0 -8.83,-3.951 -8.83,-8.821 v -5.191 c 0,-4.876 3.96,-8.83 8.83,-8.83 h 22.683 c 4.87,0 8.83,3.954 8.83,8.83 v 5.191 z m 118.544,148.114 c -39.001,0 -70.737,-31.734 -70.737,-70.736 0,-38.992 31.735,-70.728 70.737,-70.728 38.995,0 70.712,31.735 70.712,70.728 0,39.002 -31.717,70.736 -70.712,70.736 z"
           id="path3011"
           style="fill:#0a90ea;fill-opacity:1"
           inkscape:connector-curvature="0" /></g></g></g><g
     id="g3013"
     transform="translate(0,-274.401)" /><g
     id="g3015"
     transform="translate(0,-274.401)" /><g
     id="g3017"
     transform="translate(0,-274.401)" /><g
     id="g3019"
     transform="translate(0,-274.401)" /><g
     id="g3021"
     transform="translate(0,-274.401)" /><g
     id="g3023"
     transform="translate(0,-274.401)" /><g
     id="g3025"
     transform="translate(0,-274.401)" /><g
     id="g3027"
     transform="translate(0,-274.401)" /><g
     id="g3029"
     transform="translate(0,-274.401)" /><g
     id="g3031"
     transform="translate(0,-274.401)" /><g
     id="g3033"
     transform="translate(0,-274.401)" /><g
     id="g3035"
     transform="translate(0,-274.401)" /><g
     id="g3037"
     transform="translate(0,-274.401)" /><g
     id="g3039"
     transform="translate(0,-274.401)" /><g
     id="g3041"
     transform="translate(0,-274.401)" /></svg>