<?xml version="1.0" encoding="UTF-8" standalone="no"?>
<!-- Generator: Adobe Illustrator 16.0.0, SVG Export Plug-In . SVG Version: 6.00 Build 0)  -->

<svg
   xmlns:dc="http://purl.org/dc/elements/1.1/"
   xmlns:cc="http://creativecommons.org/ns#"
   xmlns:rdf="http://www.w3.org/1999/02/22-rdf-syntax-ns#"
   xmlns:svg="http://www.w3.org/2000/svg"
   xmlns="http://www.w3.org/2000/svg"
   xmlns:sodipodi="http://sodipodi.sourceforge.net/DTD/sodipodi-0.dtd"
   xmlns:inkscape="http://www.inkscape.org/namespaces/inkscape"
   version="1.1"
   id="Capa_1"
   x="0px"
   y="0px"
   width="60"
   height="60"
   viewBox="0 0 60 60"
   xml:space="preserve"
   inkscape:version="0.48.4 r9939"
   sodipodi:docname="cerrar.svg"
   inkscape:export-filename="/home/ivajo26/Projects/encasa/encasa_fincaraiz/icons/export_png/cerrar.png"
   inkscape:export-xdpi="90"
   inkscape:export-ydpi="90"><metadata
     id="metadata3103"><rdf:RDF><cc:Work
         rdf:about=""><dc:format>image/svg+xml</dc:format><dc:type
           rdf:resource="http://purl.org/dc/dcmitype/StillImage" /><dc:title></dc:title></cc:Work></rdf:RDF></metadata><defs
     id="defs3101" /><sodipodi:namedview
     pagecolor="#ffffff"
     bordercolor="#666666"
     borderopacity="1"
     objecttolerance="10"
     gridtolerance="10"
     guidetolerance="10"
     inkscape:pageopacity="0"
     inkscape:pageshadow="2"
     inkscape:window-width="1366"
     inkscape:window-height="713"
     id="namedview3099"
     showgrid="false"
     inkscape:zoom="9.0166667"
     inkscape:cx="30"
     inkscape:cy="30"
     inkscape:window-x="0"
     inkscape:window-y="30"
     inkscape:window-maximized="1"
     inkscape:current-layer="g3065" /><g
     id="g3065"
     transform="translate(0,-426.733)"><path
       d="M 49.786701,450.96352 H 48.6176 v -5.47175 c 0,-10.12041 -8.03122,-18.57457 -18.06929,-18.75504 -0.274278,-0.005 -0.82234,-0.005 -1.096495,0 -10.038316,0.18047 -18.069413,8.63463 -18.069413,18.75504 v 5.47175 h -1.169225 c -1.801727,0 -3.271362,1.85917 -3.271362,4.15534 v 27.44404 c 0,2.29358 1.469635,4.17012 3.271486,4.17012 h 39.5734 c 1.801724,0 3.271484,-1.87655 3.271484,-4.17012 v -27.44404 c 0,-2.29604 -1.46963,-4.15534 -3.271484,-4.15534 z m -16.079206,17.84949 v 8.29256 c 0,0.94955 -0.794973,1.75315 -1.745268,1.75315 h -3.924205 c -0.950419,0 -1.745393,-0.8036 -1.745393,-1.75315 v -8.29256 c -0.921696,-0.90726 -1.458294,-2.1618 -1.458294,-3.54957 0,-2.62987 2.03286,-4.88968 4.617604,-4.99408 0.273907,-0.0111 0.822586,-0.0111 1.096494,0 2.584743,0.1044 4.617603,2.36421 4.617603,4.99408 -2.46e-4,1.38778 -0.536844,2.64231 -1.458541,3.54957 z m 7.204443,-17.84949 H 30.54831 29.451815 19.088187 v -5.47175 c 0,-6.02856 4.899277,-11.01326 10.911814,-11.01326 6.012536,0 10.91206,4.9847 10.91206,11.01326 v 5.47175 z"
       id="path3067"
       style="fill:#0a90ea;fill-opacity:1"
       inkscape:connector-curvature="0" /></g><g
     id="g3069"
     transform="translate(0,-426.733)" /><g
     id="g3071"
     transform="translate(0,-426.733)" /><g
     id="g3073"
     transform="translate(0,-426.733)" /><g
     id="g3075"
     transform="translate(0,-426.733)" /><g
     id="g3077"
     transform="translate(0,-426.733)" /><g
     id="g3079"
     transform="translate(0,-426.733)" /><g
     id="g3081"
     transform="translate(0,-426.733)" /><g
     id="g3083"
     transform="translate(0,-426.733)" /><g
     id="g3085"
     transform="translate(0,-426.733)" /><g
     id="g3087"
     transform="translate(0,-426.733)" /><g
     id="g3089"
     transform="translate(0,-426.733)" /><g
     id="g3091"
     transform="translate(0,-426.733)" /><g
     id="g3093"
     transform="translate(0,-426.733)" /><g
     id="g3095"
     transform="translate(0,-426.733)" /><g
     id="g3097"
     transform="translate(0,-426.733)" /></svg>