<?xml version="1.0" encoding="UTF-8" standalone="no"?>
<!-- Generator: Adobe Illustrator 19.0.0, SVG Export Plug-In . SVG Version: 6.00 Build 0)  -->

<svg
   xmlns:dc="http://purl.org/dc/elements/1.1/"
   xmlns:cc="http://creativecommons.org/ns#"
   xmlns:rdf="http://www.w3.org/1999/02/22-rdf-syntax-ns#"
   xmlns:svg="http://www.w3.org/2000/svg"
   xmlns="http://www.w3.org/2000/svg"
   xmlns:sodipodi="http://sodipodi.sourceforge.net/DTD/sodipodi-0.dtd"
   xmlns:inkscape="http://www.inkscape.org/namespaces/inkscape"
   version="1.1"
   id="Capa_1"
   x="0px"
   y="0px"
   viewBox="0 0 60 60"
   xml:space="preserve"
   inkscape:version="0.48.4 r9939"
   width="100%"
   height="100%"
   sodipodi:docname="interface.svg"
   inkscape:export-filename="/home/ivajo26/Projects/encasa/icons/export_png/check.png"
   inkscape:export-xdpi="90"
   inkscape:export-ydpi="90"><metadata
     id="metadata41"><rdf:RDF><cc:Work
         rdf:about=""><dc:format>image/svg+xml</dc:format><dc:type
           rdf:resource="http://purl.org/dc/dcmitype/StillImage" /><dc:title></dc:title></cc:Work></rdf:RDF></metadata><defs
     id="defs39" /><sodipodi:namedview
     pagecolor="#ffffff"
     bordercolor="#666666"
     borderopacity="1"
     objecttolerance="10"
     gridtolerance="10"
     guidetolerance="10"
     inkscape:pageopacity="0"
     inkscape:pageshadow="2"
     inkscape:window-width="1366"
     inkscape:window-height="713"
     id="namedview37"
     showgrid="false"
     inkscape:zoom="6.3757461"
     inkscape:cx="11.923138"
     inkscape:cy="30.757988"
     inkscape:window-x="0"
     inkscape:window-y="30"
     inkscape:window-maximized="1"
     inkscape:current-layer="Capa_1" /><g
     id="g3"
     transform="matrix(0.13819535,0,0,0.13819535,2.0425622e-5,6.406e-7)"
     style="fill-opacity:1;fill:#0a90ea"><path
       d="M 332.318,230.196 V 34.967 H 40.93 v 364.235 h 134.038 c 9.616,0 17.483,7.867 17.483,17.483 0,9.616 -7.867,17.483 -17.483,17.483 H 23.446 c -9.616,0 -17.483,-7.867 -17.483,-17.483 V 17.483 C 5.963,7.867 13.831,0 23.446,0 H 349.8 c 9.616,0 17.483,7.867 17.483,17.483 v 212.713 c 0,9.616 -7.867,17.483 -17.483,17.483 -9.616,0 -17.482,-7.867 -17.482,-17.483 z m 90.039,42.543 c -7.285,-6.411 -18.357,-5.828 -24.768,1.457 l -95.867,106.648 -48.079,-46.331 c -6.993,-6.702 -18.066,-6.411 -24.768,0.583 -6.702,6.994 -6.411,18.066 0.583,24.768 l 61.191,58.86 c 3.205,3.205 7.576,4.954 12.238,4.954 0.291,0 0.291,0 0.583,0 4.662,-0.291 9.324,-2.331 12.238,-5.828 L 423.522,297.798 c 6.702,-7.576 6.119,-18.648 -1.165,-25.059 z M 268.212,101.986 H 110.863 c -9.616,0 -17.483,7.867 -17.483,17.483 0,9.616 7.867,17.483 17.483,17.483 h 157.349 c 9.616,0 17.483,-7.867 17.483,-17.483 0,-9.616 -7.867,-17.483 -17.483,-17.483 z m 17.484,113.641 c 0,-9.616 -7.867,-17.483 -17.483,-17.483 h -157.35 c -9.616,0 -17.483,7.867 -17.483,17.483 0,9.616 7.867,17.483 17.483,17.483 h 157.349 c 9.616,0 17.484,-7.867 17.484,-17.483 z m -174.833,75.761 c -9.616,0 -17.483,7.867 -17.483,17.483 0,9.616 7.867,17.483 17.483,17.483 h 46.622 c 9.616,0 17.483,-7.867 17.483,-17.483 0,-9.616 -7.867,-17.483 -17.483,-17.483 h -46.622 z"
       id="path5"
       inkscape:connector-curvature="0"
       style="fill-opacity:1;fill:#0a90ea" /></g><g
     id="g7"
     transform="translate(0,-374.168)" /><g
     id="g9"
     transform="translate(0,-374.168)" /><g
     id="g11"
     transform="translate(0,-374.168)" /><g
     id="g13"
     transform="translate(0,-374.168)" /><g
     id="g15"
     transform="translate(0,-374.168)" /><g
     id="g17"
     transform="translate(0,-374.168)" /><g
     id="g19"
     transform="translate(0,-374.168)" /><g
     id="g21"
     transform="translate(0,-374.168)" /><g
     id="g23"
     transform="translate(0,-374.168)" /><g
     id="g25"
     transform="translate(0,-374.168)" /><g
     id="g27"
     transform="translate(0,-374.168)" /><g
     id="g29"
     transform="translate(0,-374.168)" /><g
     id="g31"
     transform="translate(0,-374.168)" /><g
     id="g33"
     transform="translate(0,-374.168)" /><g
     id="g35"
     transform="translate(0,-374.168)" /></svg>