<?xml version="1.0" encoding="UTF-8" standalone="no"?>
<!-- Generator: Adobe Illustrator 19.0.0, SVG Export Plug-In . SVG Version: 6.00 Build 0)  -->

<svg
   xmlns:dc="http://purl.org/dc/elements/1.1/"
   xmlns:cc="http://creativecommons.org/ns#"
   xmlns:rdf="http://www.w3.org/1999/02/22-rdf-syntax-ns#"
   xmlns:svg="http://www.w3.org/2000/svg"
   xmlns="http://www.w3.org/2000/svg"
   xmlns:sodipodi="http://sodipodi.sourceforge.net/DTD/sodipodi-0.dtd"
   xmlns:inkscape="http://www.inkscape.org/namespaces/inkscape"
   version="1.1"
   id="Capa_1"
   x="0px"
   y="0px"
   viewBox="0 0 60 59.999999"
   xml:space="preserve"
   inkscape:version="0.48.4 r9939"
   width="100%"
   height="100%"
   sodipodi:docname="close.svg"
   inkscape:export-filename="/home/ivajo26/Projects/encasa/icons/export_png/close.png"
   inkscape:export-xdpi="90"
   inkscape:export-ydpi="90"><metadata
     id="metadata41"><rdf:RDF><cc:Work
         rdf:about=""><dc:format>image/svg+xml</dc:format><dc:type
           rdf:resource="http://purl.org/dc/dcmitype/StillImage" /><dc:title></dc:title></cc:Work></rdf:RDF></metadata><defs
     id="defs39" /><sodipodi:namedview
     pagecolor="#ffffff"
     bordercolor="#666666"
     borderopacity="1"
     objecttolerance="10"
     gridtolerance="10"
     guidetolerance="10"
     inkscape:pageopacity="0"
     inkscape:pageshadow="2"
     inkscape:window-width="1366"
     inkscape:window-height="713"
     id="namedview37"
     showgrid="false"
     fit-margin-top="0"
     fit-margin-left="0"
     fit-margin-right="0"
     fit-margin-bottom="0"
     inkscape:zoom="4.5083334"
     inkscape:cx="5.1028246"
     inkscape:cy="25.632418"
     inkscape:window-x="0"
     inkscape:window-y="30"
     inkscape:window-maximized="1"
     inkscape:current-layer="g3" /><g
     id="g3"
     transform="matrix(0.13819535,0,0,0.13819535,-1.2945649e-5,-3.594e-7)"><path
       d="m 392.627,17.483 v 212.713 c 0,9.616 -7.867,17.483 -17.483,17.483 -9.616,0 -17.483,-7.867 -17.483,-17.483 V 34.967 H 66.272 V 399.202 H 200.31 c 9.616,0 17.483,7.867 17.483,17.483 0,9.616 -7.867,17.483 -17.483,17.483 H 48.789 c -9.616,0 -17.483,-7.867 -17.483,-17.483 V 17.483 C 31.306,7.867 39.173,0 48.789,0 h 326.354 c 9.616,0 17.484,7.867 17.484,17.483 z M 136.205,136.952 h 157.349 c 9.616,0 17.483,-7.867 17.483,-17.483 0,-9.616 -7.867,-17.483 -17.483,-17.483 H 136.205 c -9.616,0 -17.483,7.867 -17.483,17.483 0,9.616 7.868,17.483 17.483,17.483 z m 174.833,78.675 c 0,-9.616 -7.867,-17.483 -17.483,-17.483 h -157.35 c -9.616,0 -17.483,7.867 -17.483,17.483 0,9.616 7.867,17.483 17.483,17.483 h 157.349 c 9.617,0 17.484,-7.867 17.484,-17.483 z m -174.833,75.761 c -9.616,0 -17.483,7.867 -17.483,17.483 0,9.616 7.867,17.483 17.483,17.483 h 46.622 c 9.616,0 17.483,-7.867 17.483,-17.483 0,-9.616 -7.867,-17.483 -17.483,-17.483 h -46.622 z m 261.375,0.874 c -6.702,-6.702 -17.775,-6.702 -24.768,0 l -41.377,41.377 -41.668,-41.668 c -6.702,-6.702 -17.775,-6.702 -24.768,0 -6.702,6.702 -6.702,17.775 0,24.768 l 41.668,41.668 -41.668,41.668 c -6.702,6.702 -6.702,17.775 0,24.768 3.497,3.497 7.867,5.245 12.238,5.245 4.371,0 9.033,-1.748 12.238,-5.245 l 41.668,-41.668 41.668,41.668 c 3.497,3.497 7.867,5.245 12.238,5.245 4.371,0 9.033,-1.748 12.238,-5.245 6.702,-6.702 6.702,-17.775 0,-24.768 l -41.086,-41.668 41.668,-41.668 c 6.705,-6.702 6.705,-17.775 -0.289,-24.477 z"
       id="path5"
       inkscape:connector-curvature="0"
       style="fill:#0a90ea;fill-opacity:1" /></g><g
     id="g7"
     transform="translate(-31.305999,-374.16799)" /><g
     id="g9"
     transform="translate(-31.305999,-374.16799)" /><g
     id="g11"
     transform="translate(-31.305999,-374.16799)" /><g
     id="g13"
     transform="translate(-31.305999,-374.16799)" /><g
     id="g15"
     transform="translate(-31.305999,-374.16799)" /><g
     id="g17"
     transform="translate(-31.305999,-374.16799)" /><g
     id="g19"
     transform="translate(-31.305999,-374.16799)" /><g
     id="g21"
     transform="translate(-31.305999,-374.16799)" /><g
     id="g23"
     transform="translate(-31.305999,-374.16799)" /><g
     id="g25"
     transform="translate(-31.305999,-374.16799)" /><g
     id="g27"
     transform="translate(-31.305999,-374.16799)" /><g
     id="g29"
     transform="translate(-31.305999,-374.16799)" /><g
     id="g31"
     transform="translate(-31.305999,-374.16799)" /><g
     id="g33"
     transform="translate(-31.305999,-374.16799)" /><g
     id="g35"
     transform="translate(-31.305999,-374.16799)" /></svg>