<?xml version="1.0" encoding="UTF-8" standalone="no"?>
<!-- Generator: Adobe Illustrator 18.1.1, SVG Export Plug-In . SVG Version: 6.00 Build 0)  -->

<svg
   xmlns:dc="http://purl.org/dc/elements/1.1/"
   xmlns:cc="http://creativecommons.org/ns#"
   xmlns:rdf="http://www.w3.org/1999/02/22-rdf-syntax-ns#"
   xmlns:svg="http://www.w3.org/2000/svg"
   xmlns="http://www.w3.org/2000/svg"
   xmlns:sodipodi="http://sodipodi.sourceforge.net/DTD/sodipodi-0.dtd"
   xmlns:inkscape="http://www.inkscape.org/namespaces/inkscape"
   version="1.1"
   id="Capa_1"
   x="0px"
   y="0px"
   viewBox="0 0 60 60"
   xml:space="preserve"
   inkscape:version="0.48.4 r9939"
   width="100%"
   height="100%"
   sodipodi:docname="detail.svg"
   inkscape:export-filename="/home/ivajo26/Projects/encasa/icons/export_png/detail.png"
   inkscape:export-xdpi="90"
   inkscape:export-ydpi="90"><metadata
     id="metadata49"><rdf:RDF><cc:Work
         rdf:about=""><dc:format>image/svg+xml</dc:format><dc:type
           rdf:resource="http://purl.org/dc/dcmitype/StillImage" /><dc:title></dc:title></cc:Work></rdf:RDF></metadata><defs
     id="defs47" /><sodipodi:namedview
     pagecolor="#ffffff"
     bordercolor="#666666"
     borderopacity="1"
     objecttolerance="10"
     gridtolerance="10"
     guidetolerance="10"
     inkscape:pageopacity="0"
     inkscape:pageshadow="2"
     inkscape:window-width="1366"
     inkscape:window-height="713"
     id="namedview45"
     showgrid="false"
     showguides="true"
     inkscape:guide-bbox="true"
     inkscape:zoom="0.55529412"
     inkscape:cx="-61.228814"
     inkscape:cy="212.5"
     inkscape:window-x="0"
     inkscape:window-y="30"
     inkscape:window-maximized="1"
     inkscape:current-layer="Capa_1" /><g
     id="g3"
     transform="matrix(0.14117647,0,0,0.14117647,-7.0463235e-5,1.25e-7)"
     style="fill:#0a90ea;fill-opacity:1"><g
       id="g5"
       style="fill:#0a90ea;fill-opacity:1"><path
         d="m 385.333,17 c 0,-9.35 -7.65,-17 -17,-17 H 56.667 c -9.35,0 -17,7.65 -17,17 v 391 c 0,9.35 7.65,17 17,17 h 311.667 c 9.35,0 17,-7.65 17,-17 V 17 z M 73.667,34 H 351.334 V 391 H 73.667 V 34 z"
         id="path7"
         inkscape:connector-curvature="0"
         style="fill:#0a90ea;fill-opacity:1" /><path
         d="M 289,99.167 H 136 c -9.35,0 -17,7.65 -17,17 0,9.35 7.65,17 17,17 h 153 c 9.35,0 17,-7.65 17,-17 0,-9.35 -7.65,-17 -17,-17 z"
         id="path9"
         inkscape:connector-curvature="0"
         style="fill:#0a90ea;fill-opacity:1" /><path
         d="M 289,189.833 H 136 c -9.35,0 -17,7.65 -17,17 0,9.35 7.65,17 17,17 h 153 c 9.35,0 17,-7.65 17,-17 0,-9.35 -7.65,-17 -17,-17 z"
         id="path11"
         inkscape:connector-curvature="0"
         style="fill:#0a90ea;fill-opacity:1" /><path
         d="M 289,286.167 H 136 c -9.35,0 -17,7.65 -17,17 0,9.35 7.65,17 17,17 h 153 c 9.35,0 17,-7.65 17,-17 0,-9.35 -7.65,-17 -17,-17 z"
         id="path13"
         inkscape:connector-curvature="0"
         style="fill:#0a90ea;fill-opacity:1" /></g></g><g
     id="g15"
     transform="translate(0,-365)" /><g
     id="g17"
     transform="translate(0,-365)" /><g
     id="g19"
     transform="translate(0,-365)" /><g
     id="g21"
     transform="translate(0,-365)" /><g
     id="g23"
     transform="translate(0,-365)" /><g
     id="g25"
     transform="translate(0,-365)" /><g
     id="g27"
     transform="translate(0,-365)" /><g
     id="g29"
     transform="translate(0,-365)" /><g
     id="g31"
     transform="translate(0,-365)" /><g
     id="g33"
     transform="translate(0,-365)" /><g
     id="g35"
     transform="translate(0,-365)" /><g
     id="g37"
     transform="translate(0,-365)" /><g
     id="g39"
     transform="translate(0,-365)" /><g
     id="g41"
     transform="translate(0,-365)" /><g
     id="g43"
     transform="translate(0,-365)" /></svg>