<?xml version="1.0" encoding="UTF-8" standalone="no"?>
<!-- Generator: Adobe Illustrator 18.1.1, SVG Export Plug-In . SVG Version: 6.00 Build 0)  -->

<svg
   xmlns:dc="http://purl.org/dc/elements/1.1/"
   xmlns:cc="http://creativecommons.org/ns#"
   xmlns:rdf="http://www.w3.org/1999/02/22-rdf-syntax-ns#"
   xmlns:svg="http://www.w3.org/2000/svg"
   xmlns="http://www.w3.org/2000/svg"
   xmlns:sodipodi="http://sodipodi.sourceforge.net/DTD/sodipodi-0.dtd"
   xmlns:inkscape="http://www.inkscape.org/namespaces/inkscape"
   version="1.1"
   id="Capa_1"
   x="0px"
   y="0px"
   viewBox="0 0 60 60"
   xml:space="preserve"
   inkscape:version="0.48.4 r9939"
   width="100%"
   height="100%"
   sodipodi:docname="icon.svg"
   inkscape:export-filename="/home/ivajo26/Projects/encasa/icons/export_png/delete.png"
   inkscape:export-xdpi="90"
   inkscape:export-ydpi="90"><metadata
     id="metadata45"><rdf:RDF><cc:Work
         rdf:about=""><dc:format>image/svg+xml</dc:format><dc:type
           rdf:resource="http://purl.org/dc/dcmitype/StillImage" /><dc:title></dc:title></cc:Work></rdf:RDF></metadata><defs
     id="defs43" /><sodipodi:namedview
     pagecolor="#ffffff"
     bordercolor="#666666"
     borderopacity="1"
     objecttolerance="10"
     gridtolerance="10"
     guidetolerance="10"
     inkscape:pageopacity="0"
     inkscape:pageshadow="2"
     inkscape:window-width="1366"
     inkscape:window-height="713"
     id="namedview41"
     showgrid="false"
     inkscape:zoom="4.1596165"
     inkscape:cx="-12.496001"
     inkscape:cy="24.055482"
     inkscape:window-x="0"
     inkscape:window-y="30"
     inkscape:window-maximized="1"
     inkscape:current-layer="Capa_1" /><path
     d="M 43.883248,23.943528 C 43.752115,23.564932 43.608291,23.201142 43.3989,22.833122 l -0.310914,-0.54357 c 0.704315,-0.994078 1.106176,-2.072758 1.106176,-3.18951 v -6.364213 c 0,-0.856599 -0.241117,-1.732233 -0.71912,-2.601523 L 43.320643,9.8635789 c 0.203045,-0.4589679 0.332064,-0.9327411 0.332064,-1.42978 0,-5.1459391 -11.110406,-7.91666662 -21.560914,-7.91666662 -10.448392,0 -21.56091307,2.77284262 -21.56091307,7.91878162 0,0.5012691 0.13324873,0.9686971 0.33206429,1.42978 L 0.71489008,10.134306 C 0.23265658,11.003596 7.0642926e-8,11.87923 7.0642926e-8,12.735829 v 6.362098 C 7.0642926e-8,20.214679 0.39340108,21.287014 1.104061,22.287437 l -0.31725891,0.54357 C 0.26226741,23.729907 7.0642926e-8,24.649958 7.0642926e-8,25.555203 v 6.364213 C 7.0642926e-8,33.004442 0.37013543,34.057741 1.0427243,35.032783 L 0.78680209,35.483291 C 0.26226741,36.384306 7.0642926e-8,37.304357 7.0642926e-8,38.201142 v 6.364213 C 7.0642926e-8,50.216793 9.7060067,54.649957 22.091793,54.649957 c 2.533841,0 4.951354,-0.198815 7.191202,-0.54357 0.08883,-0.0042 0.137479,-0.0148 0.198815,-0.02115 3.229696,3.314297 7.711506,5.397631 12.690355,5.397631 9.828681,0 17.827834,-7.999154 17.827834,-17.823604 0.0021,-9.259729 -7.087563,-16.852792 -16.116751,-17.715736 z M 22.091793,2.8838835 c 11.892978,0 19.196278,3.2296954 19.196278,5.5520304 0,2.3202201 -7.305415,5.5520301 -19.196278,5.5520301 -11.888747,0 -19.1941618,-3.23181 -19.1941618,-5.5520301 0,-2.322335 7.3032998,-5.5520304 19.1941618,-5.5520304 z M 2.3667513,13.806049 c 3.5427242,3.005499 11.7597287,4.560068 19.7250417,4.560068 7.963198,0 16.184433,-1.554569 19.731388,-4.560068 v 5.291878 c 0,3.650593 -8.102792,7.713621 -19.731388,7.713621 -11.61802,0 -19.7250417,-4.065144 -19.7250417,-7.713621 0,0 0,-5.291878 0,-5.291878 z m 0,12.12775 c 3.6273265,3.320643 11.0913707,5.444162 19.7250417,5.444162 2.053723,0 3.999577,-0.162859 5.879865,-0.391286 -1.448816,1.920474 -2.552876,4.111675 -3.123942,6.527073 -0.16286,0.659898 -0.285533,1.332487 -0.365906,2.013536 -0.793147,0.0423 -1.558798,0.109983 -2.390017,0.109983 -11.61802,0 -19.7250417,-4.069374 -19.7250417,-7.713621 0,-0.0021 0,-5.989847 0,-5.989847 z M 22.091793,52.283206 c -11.61802,0 -19.7250417,-4.065144 -19.7250417,-7.719966 v -5.979272 c 3.6273265,3.320643 11.0913707,5.431472 19.7250417,5.431472 0.822758,0 1.620136,-0.04442 2.419628,-0.09306 0.272843,2.161591 0.928511,4.215313 1.912014,6.06176 0.365905,0.687394 0.788917,1.326142 1.239424,1.95643 -1.747039,0.20939 -3.59983,0.342639 -5.571066,0.342639 z m 20.082488,3.656938 c -4.115906,0 -7.823604,-1.766075 -10.435703,-4.566413 -0.581641,-0.623943 -1.116751,-1.309222 -1.586294,-2.032572 -1.42978,-2.225042 -2.265228,-4.854061 -2.265228,-7.677665 0,-0.04442 0.01269,-0.08037 0.01269,-0.122673 0.0085,-0.833334 0.08883,-1.634941 0.230541,-2.425973 0.137479,-0.727581 0.319374,-1.438241 0.558376,-2.12352 1.744924,-5.027496 6.218274,-8.785956 11.658206,-9.494501 0.600677,-0.07191 1.209814,-0.122673 1.829527,-0.122673 0.17978,0 0.353214,0.01692 0.532994,0.02961 7.629019,0.289763 13.747885,6.558798 13.747885,14.255499 -0.0021,7.87225 -6.408629,14.28088 -14.282994,14.28088 z"
     id="path7"
     inkscape:connector-curvature="0"
     style="fill:#0a90ea;fill-opacity:1" /><path
     d="m 37.86392,50.576384 4.473258,-4.473258 4.431382,4.431382 c 0.09572,0.09572 0.255742,0.100203 0.355946,0 l 4.045524,-4.045524 c 0.09721,-0.09721 0.09871,-0.263221 0.003,-0.358938 l -4.431382,-4.431382 4.527098,-4.527098 c 0.09422,-0.09422 0.08824,-0.255744 -0.0045,-0.348469 L 47.21424,32.773086 c -0.09572,-0.09572 -0.254247,-0.09871 -0.348468,-0.0045 l -4.527099,4.527099 -4.567479,-4.567479 c -0.100203,-0.100204 -0.261725,-0.09422 -0.358938,0.003 l -4.045524,4.045524 c -0.100203,0.100204 -0.100203,0.255743 0,0.355947 l 4.567479,4.567479 -4.473258,4.473258 c -0.09721,0.09721 -0.09721,0.258734 -0.0015,0.354451 l 4.050011,4.050011 c 0.09124,0.09421 0.255743,0.09721 0.354451,-0.0015 z"
     id="path9"
     inkscape:connector-curvature="0"
     style="fill:#0a90ea;fill-opacity:1" /><g
     id="g11"
     transform="translate(0,31.632)" /><g
     id="g13"
     transform="translate(0,31.632)" /><g
     id="g15"
     transform="translate(0,31.632)" /><g
     id="g17"
     transform="translate(0,31.632)" /><g
     id="g19"
     transform="translate(0,31.632)" /><g
     id="g21"
     transform="translate(0,31.632)" /><g
     id="g23"
     transform="translate(0,31.632)" /><g
     id="g25"
     transform="translate(0,31.632)" /><g
     id="g27"
     transform="translate(0,31.632)" /><g
     id="g29"
     transform="translate(0,31.632)" /><g
     id="g31"
     transform="translate(0,31.632)" /><g
     id="g33"
     transform="translate(0,31.632)" /><g
     id="g35"
     transform="translate(0,31.632)" /><g
     id="g37"
     transform="translate(0,31.632)" /><g
     id="g39"
     transform="translate(0,31.632)" /></svg>