<?xml version="1.0" encoding="UTF-8" standalone="no"?>
<!-- Generator: Adobe Illustrator 18.0.0, SVG Export Plug-In . SVG Version: 6.00 Build 0)  -->

<svg
   xmlns:dc="http://purl.org/dc/elements/1.1/"
   xmlns:cc="http://creativecommons.org/ns#"
   xmlns:rdf="http://www.w3.org/1999/02/22-rdf-syntax-ns#"
   xmlns:svg="http://www.w3.org/2000/svg"
   xmlns="http://www.w3.org/2000/svg"
   xmlns:sodipodi="http://sodipodi.sourceforge.net/DTD/sodipodi-0.dtd"
   xmlns:inkscape="http://www.inkscape.org/namespaces/inkscape"
   version="1.1"
   id="Capa_1"
   x="0px"
   y="0px"
   viewBox="0 0 60 60"
   xml:space="preserve"
   inkscape:version="0.48.4 r9939"
   width="100%"
   height="100%"
   sodipodi:docname="light.svg"
   inkscape:export-filename="/home/ivajo26/Projects/encasa/icons/export_png/light.png"
   inkscape:export-xdpi="90"
   inkscape:export-ydpi="90"><metadata
     id="metadata39"><rdf:RDF><cc:Work
         rdf:about=""><dc:format>image/svg+xml</dc:format><dc:type
           rdf:resource="http://purl.org/dc/dcmitype/StillImage" /><dc:title></dc:title></cc:Work></rdf:RDF></metadata><defs
     id="defs37" /><sodipodi:namedview
     pagecolor="#ffffff"
     bordercolor="#666666"
     borderopacity="1"
     objecttolerance="10"
     gridtolerance="10"
     guidetolerance="10"
     inkscape:pageopacity="0"
     inkscape:pageshadow="2"
     inkscape:window-width="1366"
     inkscape:window-height="713"
     id="namedview35"
     showgrid="false"
     showguides="true"
     inkscape:guide-bbox="true"
     inkscape:zoom="2.0486259"
     inkscape:cx="86.738674"
     inkscape:cy="-3.1549151"
     inkscape:window-x="0"
     inkscape:window-y="30"
     inkscape:window-maximized="1"
     inkscape:current-layer="Capa_1" /><path
     d="M 46.605542,0.38160905 23.325814,9.701199 c -1.495496,0.5987 -2.564989,1.80301 -3.047552,3.21671 l -5.84366,2.3394 c -5.0647587,2.11542 -7.2716387,6.50557 -8.7380137,10.06249 -2.152343,4.94027 -1.71047,12.8209 -1.557125,18.60111 l 0.502287,16.07909 6.0268687,0 -0.502286,-16.07909 c -0.2403547,-7.69424 -0.7875197,-19.37904 6.263793,-22.46235 0.137401,-0.0603 0.276678,-0.11843 0.417096,-0.17468 l 4.653115,-1.86278 1.369887,3.42188 9.336057,-3.73751 c 1.75699,4.38886 8.018223,5.87146 14.254217,3.375 6.235991,-2.49646 9.744542,-7.88987 7.987432,-12.27901 l 1.55606,-0.62295 -2.498991,-6.24231 C 52.415579,0.61489905 49.326838,-0.70780095 46.605542,0.38160905 z M 45.37512,19.768399 c -4.558197,1.82478 -9.346534,1.0241 -10.456584,-1.74873 l 16.818043,-6.73277 c 1.109744,2.77294 -1.803266,6.6567 -6.361459,8.4815 z"
     id="path3"
     inkscape:connector-curvature="0"
     sodipodi:nodetypes="ssccccccscscccsccsssccs"
     style="fill:#0a90ea;fill-opacity:1" /><g
     id="g5"
     transform="translate(0,-331.243)" /><g
     id="g7"
     transform="translate(0,-331.243)" /><g
     id="g9"
     transform="translate(0,-331.243)" /><g
     id="g11"
     transform="translate(0,-331.243)" /><g
     id="g13"
     transform="translate(0,-331.243)" /><g
     id="g15"
     transform="translate(0,-331.243)" /><g
     id="g17"
     transform="translate(0,-331.243)" /><g
     id="g19"
     transform="translate(0,-331.243)" /><g
     id="g21"
     transform="translate(0,-331.243)" /><g
     id="g23"
     transform="translate(0,-331.243)" /><g
     id="g25"
     transform="translate(0,-331.243)" /><g
     id="g27"
     transform="translate(0,-331.243)" /><g
     id="g29"
     transform="translate(0,-331.243)" /><g
     id="g31"
     transform="translate(0,-331.243)" /><g
     id="g33"
     transform="translate(0,-331.243)" /></svg>