<?xml version="1.0" encoding="UTF-8" standalone="no"?>
<!-- Generator: Adobe Illustrator 17.1.0, SVG Export Plug-In . SVG Version: 6.00 Build 0)  -->

<svg
   xmlns:dc="http://purl.org/dc/elements/1.1/"
   xmlns:cc="http://creativecommons.org/ns#"
   xmlns:rdf="http://www.w3.org/1999/02/22-rdf-syntax-ns#"
   xmlns:svg="http://www.w3.org/2000/svg"
   xmlns="http://www.w3.org/2000/svg"
   xmlns:sodipodi="http://sodipodi.sourceforge.net/DTD/sodipodi-0.dtd"
   xmlns:inkscape="http://www.inkscape.org/namespaces/inkscape"
   version="1.1"
   id="Capa_1"
   x="0px"
   y="0px"
   viewBox="0 0 59.999687 60.000002"
   xml:space="preserve"
   inkscape:version="0.48.4 r9939"
   width="100%"
   height="100%"
   sodipodi:docname="ok.svg"
   inkscape:export-filename="/home/ivajo26/Projects/encasa/encasa_fincaraiz/icons/export_png/ok.png"
   inkscape:export-xdpi="90"
   inkscape:export-ydpi="90"><metadata
     id="metadata39"><rdf:RDF><cc:Work
         rdf:about=""><dc:format>image/svg+xml</dc:format><dc:type
           rdf:resource="http://purl.org/dc/dcmitype/StillImage" /><dc:title></dc:title></cc:Work></rdf:RDF></metadata><defs
     id="defs37" /><sodipodi:namedview
     pagecolor="#ffffff"
     bordercolor="#666666"
     borderopacity="1"
     objecttolerance="10"
     gridtolerance="10"
     guidetolerance="10"
     inkscape:pageopacity="0"
     inkscape:pageshadow="2"
     inkscape:window-width="1366"
     inkscape:window-height="713"
     id="namedview35"
     showgrid="false"
     fit-margin-top="0"
     fit-margin-left="0"
     fit-margin-right="0"
     fit-margin-bottom="0"
     inkscape:zoom="1.2313022"
     inkscape:cx="95.8335"
     inkscape:cy="95.833507"
     inkscape:window-x="0"
     inkscape:window-y="30"
     inkscape:window-maximized="1"
     inkscape:current-layer="Capa_1" /><path
     d="M 29.999842,0 C 13.458028,0 0,13.45772 0,29.99984 0,46.54197 13.458028,60 29.999842,60 46.541656,60 59.999685,46.54197 59.999685,29.99984 59.999685,13.45772 46.541969,0 29.999842,0 z M 47.226281,24.93262 28.378906,43.77999 c -0.80139,0.80139 -1.866675,1.24247 -2.99989,1.24247 -1.133216,0 -2.198501,-0.44108 -2.999891,-1.24247 l -9.605722,-9.60572 c -0.80139,-0.80139 -1.24278,-1.86667 -1.24278,-2.99989 0,-1.13353 0.44139,-2.19881 1.24278,-3.0002 0.801077,-0.80139 1.866362,-1.24278 2.999891,-1.24278 1.133215,0 2.198813,0.44139 2.99989,1.24309 l 6.605519,6.60521 15.847172,-15.84717 c 0.801389,-0.80139 1.866674,-1.24247 2.99989,-1.24247 1.133215,0 2.1985,0.44108 2.99989,1.24247 1.654745,1.65474 1.654745,4.34597 6.26e-4,6.00009 z"
     id="path3"
     inkscape:connector-curvature="0"
     style="fill:#0a90ea;fill-opacity:1" /><g
     id="g5"
     transform="translate(0,-131.667)" /><g
     id="g7"
     transform="translate(0,-131.667)" /><g
     id="g9"
     transform="translate(0,-131.667)" /><g
     id="g11"
     transform="translate(0,-131.667)" /><g
     id="g13"
     transform="translate(0,-131.667)" /><g
     id="g15"
     transform="translate(0,-131.667)" /><g
     id="g17"
     transform="translate(0,-131.667)" /><g
     id="g19"
     transform="translate(0,-131.667)" /><g
     id="g21"
     transform="translate(0,-131.667)" /><g
     id="g23"
     transform="translate(0,-131.667)" /><g
     id="g25"
     transform="translate(0,-131.667)" /><g
     id="g27"
     transform="translate(0,-131.667)" /><g
     id="g29"
     transform="translate(0,-131.667)" /><g
     id="g31"
     transform="translate(0,-131.667)" /><g
     id="g33"
     transform="translate(0,-131.667)" /></svg>