<?xml version="1.0" encoding="UTF-8" standalone="no"?>
<!-- Generator: Adobe Illustrator 18.0.0, SVG Export Plug-In . SVG Version: 6.00 Build 0)  -->

<svg
   xmlns:dc="http://purl.org/dc/elements/1.1/"
   xmlns:cc="http://creativecommons.org/ns#"
   xmlns:rdf="http://www.w3.org/1999/02/22-rdf-syntax-ns#"
   xmlns:svg="http://www.w3.org/2000/svg"
   xmlns="http://www.w3.org/2000/svg"
   xmlns:sodipodi="http://sodipodi.sourceforge.net/DTD/sodipodi-0.dtd"
   xmlns:inkscape="http://www.inkscape.org/namespaces/inkscape"
   version="1.1"
   id="Capa_1"
   x="0px"
   y="0px"
   viewBox="0 0 60 60"
   xml:space="preserve"
   inkscape:version="0.48.4 r9939"
   width="100%"
   height="100%"
   sodipodi:docname="people.svg"
   inkscape:export-filename="/home/ivajo26/Projects/encasa/icons/export_png/people.png"
   inkscape:export-xdpi="90"
   inkscape:export-ydpi="90"><metadata
     id="metadata43"><rdf:RDF><cc:Work
         rdf:about=""><dc:format>image/svg+xml</dc:format><dc:type
           rdf:resource="http://purl.org/dc/dcmitype/StillImage" /><dc:title></dc:title></cc:Work></rdf:RDF></metadata><defs
     id="defs41" /><sodipodi:namedview
     pagecolor="#ffffff"
     bordercolor="#666666"
     borderopacity="1"
     objecttolerance="10"
     gridtolerance="10"
     guidetolerance="10"
     inkscape:pageopacity="0"
     inkscape:pageshadow="2"
     inkscape:window-width="1366"
     inkscape:window-height="713"
     id="namedview39"
     showgrid="false"
     inkscape:zoom="1.0190504"
     inkscape:cx="211.04564"
     inkscape:cy="213.29747"
     inkscape:window-x="0"
     inkscape:window-y="30"
     inkscape:window-maximized="1"
     inkscape:current-layer="Capa_1" /><g
     id="g9"
     transform="translate(0,-293.139)" /><g
     id="g11"
     transform="translate(0,-293.139)" /><g
     id="g13"
     transform="translate(0,-293.139)" /><g
     id="g15"
     transform="translate(0,-293.139)" /><g
     id="g17"
     transform="translate(0,-293.139)" /><g
     id="g19"
     transform="translate(0,-293.139)" /><g
     id="g21"
     transform="translate(0,-293.139)" /><g
     id="g23"
     transform="translate(0,-293.139)" /><g
     id="g25"
     transform="translate(0,-293.139)" /><g
     id="g27"
     transform="translate(0,-293.139)" /><g
     id="g29"
     transform="translate(0,-293.139)" /><g
     id="g31"
     transform="translate(0,-293.139)" /><g
     id="g33"
     transform="translate(0,-293.139)" /><g
     id="g35"
     transform="translate(0,-293.139)" /><g
     id="g37"
     transform="translate(0,-293.139)" /><g
     id="g3800"
     transform="matrix(0.16990428,0,0,0.16990428,8.6875488e-5,1.2804e-6)"><g
       transform="translate(-4.0004329e-4,0)"
       style="fill:#0a90ea;fill-opacity:1"
       id="g3"><path
         inkscape:connector-curvature="0"
         style="fill:#0a90ea;fill-opacity:1"
         id="path7"
         d="m 326.662,301.799 c -4.127,-25.665 -12.624,-58.724 -29.667,-70.472 -11.638,-8.024 -52.243,-29.718 -69.582,-38.981 l -0.3,-0.16 c -1.982,-1.06 -4.403,-0.846 -6.17,0.541 -9.083,7.131 -19.033,11.937 -29.573,14.284 -1.862,0.415 -3.39,1.738 -4.067,3.521 l -10.733,28.291 -10.733,-28.291 c -0.677,-1.783 -2.205,-3.106 -4.067,-3.521 -10.54,-2.347 -20.49,-7.153 -29.573,-14.284 -1.768,-1.388 -4.189,-1.601 -6.17,-0.541 -17.133,9.155 -58.235,31.292 -69.831,39.107 -19.619,13.217 -28.198,61.052 -29.718,70.507 -0.151,0.938 -0.064,1.897 0.253,2.792 0.702,1.982 18.708,48.548 149.839,48.548 131.131,0 149.137,-46.566 149.839,-48.548 0.316,-0.896 0.404,-1.856 0.253,-2.793 z m -67.232,33.675 c -20.077,5.113 -46.949,8.704 -82.865,8.704 -35.918,0 -62.787,-3.591 -82.867,-8.704 6.136,-52.384 0.311,-97.785 -2.797,-116.367 3.126,-1.735 6.313,-3.487 9.479,-5.223 11.773,31.122 13.855,70.533 13.855,70.533 h 56.999 10.662 56.997 c 0,0 2.085,-39.447 13.874,-70.575 3.163,1.728 6.347,3.474 9.472,5.202 -3.106,18.545 -8.952,63.988 -2.809,116.43 z" /></g><path
       d="m 170.24366,60.476313 16.30404,0 -8.73092,22.253373 13.72002,0 -23.70145,23.837254 5.11267,-20.506038 -11.34583,0 z M 176.5696,200.676 c 24.125,0 80.846,-29.034 80.846,-98.603 0,-49.095 -5.984,-89.802 -61.013,-97.344 V 1.308 c -13.196,-1.744 -26.47,-1.744 -39.666,0 V 4.73 c -55.029,7.542 -61.013,48.249 -61.013,97.344 -0.001,69.568 56.721,98.602 80.846,98.602 z m 19.833,-184.06 c 3.487,0.532 6.669,1.201 9.564,1.985 l -4.723,42.271 h -4.842 V 16.616 z m -39.666,0 v 44.256 h -4.842 l -4.723,-42.271 c 2.896,-0.785 6.078,-1.453 9.565,-1.985 z m -48.891,67.977 0.775,-0.448 0.392,2.081 c 1.653,8.789 5.828,21.386 9.931,21.879 23.519,2.82 40.753,4.025 57.626,4.025 16.873,0 34.107,-1.205 57.625,-4.025 4.107,-0.494 8.28,-13.09 9.931,-21.878 l 0.391,-2.083 0.775,0.449 c 0.271,5.765 0.354,11.635 0.354,17.481 0,34.005 -15.015,55.075 -27.612,66.762 -15.872,14.727 -33.494,20.072 -41.466,20.072 -7.972,0 -25.594,-5.345 -41.466,-20.072 -12.597,-11.687 -27.612,-32.757 -27.612,-66.762 0.002,-5.846 0.085,-11.716 0.356,-17.481 z"
       style="fill:#0a90ea;fill-opacity:1;stroke:none"
       id="path3788"
       inkscape:connector-curvature="0" /></g></svg>