<?xml version="1.0" encoding="UTF-8" standalone="no"?>
<!-- Generator: Adobe Illustrator 16.0.0, SVG Export Plug-In . SVG Version: 6.00 Build 0)  -->

<svg
   xmlns:dc="http://purl.org/dc/elements/1.1/"
   xmlns:cc="http://creativecommons.org/ns#"
   xmlns:rdf="http://www.w3.org/1999/02/22-rdf-syntax-ns#"
   xmlns:svg="http://www.w3.org/2000/svg"
   xmlns="http://www.w3.org/2000/svg"
   xmlns:sodipodi="http://sodipodi.sourceforge.net/DTD/sodipodi-0.dtd"
   xmlns:inkscape="http://www.inkscape.org/namespaces/inkscape"
   version="1.1"
   id="Capa_1"
   x="0px"
   y="0px"
   width="60"
   height="60"
   viewBox="0 0 60 60"
   xml:space="preserve"
   inkscape:version="0.48.4 r9939"
   sodipodi:docname="regresar.svg"
   inkscape:export-filename="/home/ivajo26/Projects/encasa/encasa_fincaraiz/icons/export_png/regresar.png"
   inkscape:export-xdpi="90"
   inkscape:export-ydpi="90"><metadata
     id="metadata42"><rdf:RDF><cc:Work
         rdf:about=""><dc:format>image/svg+xml</dc:format><dc:type
           rdf:resource="http://purl.org/dc/dcmitype/StillImage" /><dc:title></dc:title></cc:Work></rdf:RDF></metadata><defs
     id="defs40" /><sodipodi:namedview
     pagecolor="#ffffff"
     bordercolor="#666666"
     borderopacity="1"
     objecttolerance="10"
     gridtolerance="10"
     guidetolerance="10"
     inkscape:pageopacity="0"
     inkscape:pageshadow="2"
     inkscape:window-width="1366"
     inkscape:window-height="713"
     id="namedview38"
     showgrid="false"
     inkscape:zoom="0.38562092"
     inkscape:cx="-88.169492"
     inkscape:cy="306"
     inkscape:window-x="0"
     inkscape:window-y="30"
     inkscape:window-maximized="1"
     inkscape:current-layer="backspace" /><g
     id="g3"
     transform="translate(0,-552)"><g
       id="backspace"><path
         d="M 55,559.5 H 17.5 c -1.75,0 -3,0.75 -4,2.25 L 0,582 13.5,602.25 c 1,1.25 2.25,2.25 4,2.25 H 55 c 2.75,0 5,-2.25 5,-5 v -35 c 0,-2.75 -2.25,-5 -5,-5 z m -7.5,31.5 -3.5,3.5 -9,-9 -9,9 -3.5,-3.5 9,-9 -9,-9 3.5,-3.5 9,9 9,-9 3.5,3.5 -9,9 9,9 z"
         id="path6"
         style="fill:#0a90ea;fill-opacity:1"
         inkscape:connector-curvature="0" /></g></g><g
     id="g8"
     transform="translate(0,-552)" /><g
     id="g10"
     transform="translate(0,-552)" /><g
     id="g12"
     transform="translate(0,-552)" /><g
     id="g14"
     transform="translate(0,-552)" /><g
     id="g16"
     transform="translate(0,-552)" /><g
     id="g18"
     transform="translate(0,-552)" /><g
     id="g20"
     transform="translate(0,-552)" /><g
     id="g22"
     transform="translate(0,-552)" /><g
     id="g24"
     transform="translate(0,-552)" /><g
     id="g26"
     transform="translate(0,-552)" /><g
     id="g28"
     transform="translate(0,-552)" /><g
     id="g30"
     transform="translate(0,-552)" /><g
     id="g32"
     transform="translate(0,-552)" /><g
     id="g34"
     transform="translate(0,-552)" /><g
     id="g36"
     transform="translate(0,-552)" /></svg>