<?xml version="1.0" encoding="UTF-8" standalone="no"?>
<!-- Generator: Adobe Illustrator 19.0.0, SVG Export Plug-In . SVG Version: 6.00 Build 0)  -->

<svg
   xmlns:dc="http://purl.org/dc/elements/1.1/"
   xmlns:cc="http://creativecommons.org/ns#"
   xmlns:rdf="http://www.w3.org/1999/02/22-rdf-syntax-ns#"
   xmlns:svg="http://www.w3.org/2000/svg"
   xmlns="http://www.w3.org/2000/svg"
   xmlns:sodipodi="http://sodipodi.sourceforge.net/DTD/sodipodi-0.dtd"
   xmlns:inkscape="http://www.inkscape.org/namespaces/inkscape"
   version="1.1"
   id="Capa_1"
   x="0px"
   y="0px"
   viewBox="0 0 60 60"
   xml:space="preserve"
   inkscape:version="0.48.4 r9939"
   width="100%"
   height="100%"
   sodipodi:docname="tool.svg"
   inkscape:export-filename="/home/ivajo26/Projects/encasa/icons/export_png/search.png"
   inkscape:export-xdpi="90"
   inkscape:export-ydpi="90"><metadata
     id="metadata43"><rdf:RDF><cc:Work
         rdf:about=""><dc:format>image/svg+xml</dc:format><dc:type
           rdf:resource="http://purl.org/dc/dcmitype/StillImage" /><dc:title></dc:title></cc:Work></rdf:RDF></metadata><defs
     id="defs41" /><sodipodi:namedview
     pagecolor="#ffffff"
     bordercolor="#666666"
     borderopacity="1"
     objecttolerance="10"
     gridtolerance="10"
     guidetolerance="10"
     inkscape:pageopacity="0"
     inkscape:pageshadow="2"
     inkscape:window-width="1366"
     inkscape:window-height="713"
     id="namedview39"
     showgrid="false"
     fit-margin-top="0"
     fit-margin-left="0"
     fit-margin-right="0"
     fit-margin-bottom="0"
     inkscape:zoom="0.79664061"
     inkscape:cx="148.1225"
     inkscape:cy="148.12349"
     inkscape:window-x="0"
     inkscape:window-y="30"
     inkscape:window-maximized="1"
     inkscape:current-layer="Capa_1" /><g
     id="g3"
     transform="matrix(0.20253473,0,0,0.20253473,1.0126736e-4,0)"
     style="fill:#0a90ea;fill-opacity:1"><path
       d="M 189.91,0 C 131.279,0 83.577,47.701 83.577,106.334 c 0,21.192 6.234,40.954 16.962,57.554 l -97.622,97.62 c -3.89,3.89 -3.89,10.253 0,14.143 l 17.678,17.677 c 3.89,3.89 10.253,3.89 14.143,0 l 97.62,-97.621 c 16.6,10.727 36.361,16.961 57.553,16.961 58.633,0 106.334,-47.701 106.334,-106.333 C 296.244,47.701 248.543,0 189.91,0 z m 0,182.667 c -42.09,0 -76.333,-34.243 -76.333,-76.333 0,-42.091 34.244,-76.334 76.333,-76.334 42.091,0 76.334,34.243 76.334,76.334 0,42.09 -34.243,76.333 -76.334,76.333 z"
       id="path5"
       inkscape:connector-curvature="0"
       style="fill:#0a90ea;fill-opacity:1" /><path
       d="m 189.91,45 c -33.819,0 -61.333,27.515 -61.333,61.334 0,33.819 27.514,61.333 61.333,61.333 33.819,0 61.334,-27.514 61.334,-61.333 C 251.244,72.515 223.73,45 189.91,45 z m -38.833,68.834 c -4.143,0 -7.5,-3.357 -7.5,-7.5 0,-25.549 20.786,-46.334 46.333,-46.334 4.143,0 7.5,3.357 7.5,7.5 0,4.143 -3.357,7.5 -7.5,7.5 -17.277,0 -31.333,14.057 -31.333,31.334 0,4.143 -3.357,7.5 -7.5,7.5 z"
       id="path7"
       inkscape:connector-curvature="0"
       style="fill:#0a90ea;fill-opacity:1" /></g><g
     id="g9"
     transform="translate(4.9999999e-4,-236.2455)" /><g
     id="g11"
     transform="translate(4.9999999e-4,-236.2455)" /><g
     id="g13"
     transform="translate(4.9999999e-4,-236.2455)" /><g
     id="g15"
     transform="translate(4.9999999e-4,-236.2455)" /><g
     id="g17"
     transform="translate(4.9999999e-4,-236.2455)" /><g
     id="g19"
     transform="translate(4.9999999e-4,-236.2455)" /><g
     id="g21"
     transform="translate(4.9999999e-4,-236.2455)" /><g
     id="g23"
     transform="translate(4.9999999e-4,-236.2455)" /><g
     id="g25"
     transform="translate(4.9999999e-4,-236.2455)" /><g
     id="g27"
     transform="translate(4.9999999e-4,-236.2455)" /><g
     id="g29"
     transform="translate(4.9999999e-4,-236.2455)" /><g
     id="g31"
     transform="translate(4.9999999e-4,-236.2455)" /><g
     id="g33"
     transform="translate(4.9999999e-4,-236.2455)" /><g
     id="g35"
     transform="translate(4.9999999e-4,-236.2455)" /><g
     id="g37"
     transform="translate(4.9999999e-4,-236.2455)" /></svg>