<?xml version="1.0" encoding="UTF-8" standalone="no"?>
<!-- Generator: Adobe Illustrator 18.0.0, SVG Export Plug-In . SVG Version: 6.00 Build 0)  -->

<svg
   xmlns:dc="http://purl.org/dc/elements/1.1/"
   xmlns:cc="http://creativecommons.org/ns#"
   xmlns:rdf="http://www.w3.org/1999/02/22-rdf-syntax-ns#"
   xmlns:svg="http://www.w3.org/2000/svg"
   xmlns="http://www.w3.org/2000/svg"
   xmlns:sodipodi="http://sodipodi.sourceforge.net/DTD/sodipodi-0.dtd"
   xmlns:inkscape="http://www.inkscape.org/namespaces/inkscape"
   version="1.1"
   id="Capa_1"
   x="0px"
   y="0px"
   viewBox="0 0 60 60"
   xml:space="preserve"
   inkscape:version="0.48.4 r9939"
   width="100%"
   height="100%"
   sodipodi:docname="technology.svg"
   inkscape:export-filename="/home/ivajo26/Projects/encasa/icons/export_png/technology.png"
   inkscape:export-xdpi="90"
   inkscape:export-ydpi="90"><metadata
     id="metadata3071"><rdf:RDF><cc:Work
         rdf:about=""><dc:format>image/svg+xml</dc:format><dc:type
           rdf:resource="http://purl.org/dc/dcmitype/StillImage" /><dc:title></dc:title></cc:Work></rdf:RDF></metadata><defs
     id="defs3069" /><sodipodi:namedview
     pagecolor="#ffffff"
     bordercolor="#666666"
     borderopacity="1"
     objecttolerance="10"
     gridtolerance="10"
     guidetolerance="10"
     inkscape:pageopacity="0"
     inkscape:pageshadow="2"
     inkscape:window-width="1366"
     inkscape:window-height="713"
     id="namedview3067"
     showgrid="false"
     inkscape:zoom="1.1593861"
     inkscape:cx="-28.463339"
     inkscape:cy="101.778"
     inkscape:window-x="0"
     inkscape:window-y="30"
     inkscape:window-maximized="1"
     inkscape:current-layer="g3029" /><g
     id="g3029"
     transform="translate(0,-143.556)"><g
       id="g4895"
       transform="matrix(0.29476063,0,0,0.29476063,0,143.555)"><path
         id="path3031"
         d="M 201.359,137.3 157.528,93.469 168.981,82.017 c 1.407,-1.407 2.197,-3.314 2.197,-5.304 0,-1.989 -0.79,-3.896 -2.197,-5.304 L 132.146,34.575 c -2.929,-2.928 -7.677,-2.928 -10.606,0 L 110.088,46.027 66.253,2.196 c -2.93,-2.928 -7.678,-2.928 -10.606,0 L 18.813,39.03 c -2.929,2.93 -2.929,7.678 0,10.607 L 62.644,93.468 51.191,104.92 c -1.407,1.407 -2.197,3.314 -2.197,5.304 0,1.99 0.79,3.896 2.197,5.304 l 36.837,36.836 c 1.464,1.464 3.384,2.196 5.303,2.196 1.919,0 3.839,-0.732 5.303,-2.196 l 11.453,-11.453 43.83,43.83 c 1.465,1.464 3.384,2.196 5.303,2.196 1.919,0 3.839,-0.732 5.303,-2.196 l 36.835,-36.834 c 1.407,-1.407 2.197,-3.314 2.197,-5.304 0.001,-1.989 -0.789,-3.896 -2.196,-5.303 z M 34.723,44.334 60.95,18.107 99.48,56.633 82.314,73.799 73.251,82.862 34.723,44.334 z m 58.608,92.12 -26.23,-26.229 11.448,-11.447 c 0.002,-0.002 0.003,-0.003 0.005,-0.005 L 90.997,86.33 126.842,50.486 153.071,76.714 141.625,88.16 c -0.003,0.003 -0.005,0.005 -0.007,0.007 l -18.417,18.418 -29.87,29.869 z m 65.89,32.377 -38.527,-38.526 26.229,-26.229 38.527,38.527 -26.229,26.228 z"
         style="fill:#0a90ea;fill-opacity:1"
         inkscape:connector-curvature="0" /><path
         id="path3033"
         d="M 72.344,188.555 C 57.027,188.556 42.627,182.591 31.796,171.76 20.965,160.929 15,146.528 15,131.211 c 0,-4.143 -3.358,-7.5 -7.5,-7.5 -4.143,0 -7.5,3.358 -7.5,7.5 0,19.324 7.526,37.491 21.189,51.155 13.663,13.664 31.829,21.189 51.152,21.189 0.001,0 0.002,0 0.004,0 4.142,0 7.499,-3.358 7.499,-7.5 0.001,-4.143 -3.358,-7.5 -7.5,-7.5 z"
         style="fill:#0a90ea;fill-opacity:1"
         inkscape:connector-curvature="0" /><path
         id="path3035"
         d="m 69.346,174.133 c 4.142,0 7.5,-3.357 7.5,-7.5 0,-4.143 -3.358,-7.5 -7.5,-7.5 -6.658,0 -12.916,-2.593 -17.624,-7.3 -4.707,-4.707 -7.299,-10.965 -7.299,-17.622 0,-4.142 -3.357,-7.5 -7.5,-7.5 h 0 c -4.142,0 -7.5,3.358 -7.5,7.5 -10e-4,10.663 4.152,20.688 11.693,28.229 7.54,7.541 17.566,11.693 28.23,11.693 z"
         style="fill:#0a90ea;fill-opacity:1"
         inkscape:connector-curvature="0" /></g></g><g
     id="g3037"
     transform="translate(0,-143.556)" /><g
     id="g3039"
     transform="translate(0,-143.556)" /><g
     id="g3041"
     transform="translate(0,-143.556)" /><g
     id="g3043"
     transform="translate(0,-143.556)" /><g
     id="g3045"
     transform="translate(0,-143.556)" /><g
     id="g3047"
     transform="translate(0,-143.556)" /><g
     id="g3049"
     transform="translate(0,-143.556)" /><g
     id="g3051"
     transform="translate(0,-143.556)" /><g
     id="g3053"
     transform="translate(0,-143.556)" /><g
     id="g3055"
     transform="translate(0,-143.556)" /><g
     id="g3057"
     transform="translate(0,-143.556)" /><g
     id="g3059"
     transform="translate(0,-143.556)" /><g
     id="g3061"
     transform="translate(0,-143.556)" /><g
     id="g3063"
     transform="translate(0,-143.556)" /><g
     id="g3065"
     transform="translate(0,-143.556)" /></svg>