<?xml version="1.0" encoding="UTF-8" standalone="no"?>
<!-- Generator: Adobe Illustrator 16.0.0, SVG Export Plug-In . SVG Version: 6.00 Build 0)  -->

<svg
   xmlns:dc="http://purl.org/dc/elements/1.1/"
   xmlns:cc="http://creativecommons.org/ns#"
   xmlns:rdf="http://www.w3.org/1999/02/22-rdf-syntax-ns#"
   xmlns:svg="http://www.w3.org/2000/svg"
   xmlns="http://www.w3.org/2000/svg"
   xmlns:sodipodi="http://sodipodi.sourceforge.net/DTD/sodipodi-0.dtd"
   xmlns:inkscape="http://www.inkscape.org/namespaces/inkscape"
   version="1.1"
   id="Capa_1"
   x="0px"
   y="0px"
   width="60"
   height="60"
   viewBox="0 0 59.999999 60"
   xml:space="preserve"
   inkscape:version="0.48.4 r9939"
   sodipodi:docname="toolbox.svg"
   inkscape:export-filename="/home/ivajo26/Projects/encasa/icons/export_png/toolbox.png"
   inkscape:export-xdpi="90"
   inkscape:export-ydpi="90"><metadata
     id="metadata51"><rdf:RDF><cc:Work
         rdf:about=""><dc:format>image/svg+xml</dc:format><dc:type
           rdf:resource="http://purl.org/dc/dcmitype/StillImage" /><dc:title></dc:title></cc:Work></rdf:RDF></metadata><defs
     id="defs49" /><sodipodi:namedview
     pagecolor="#ffffff"
     bordercolor="#666666"
     borderopacity="1"
     objecttolerance="10"
     gridtolerance="10"
     guidetolerance="10"
     inkscape:pageopacity="0"
     inkscape:pageshadow="2"
     inkscape:window-width="1366"
     inkscape:window-height="713"
     id="namedview47"
     showgrid="false"
     inkscape:zoom="0.52546151"
     inkscape:cx="0.95204803"
     inkscape:cy="224.5645"
     inkscape:window-x="0"
     inkscape:window-y="30"
     inkscape:window-maximized="1"
     inkscape:current-layer="Capa_1" /><g
     id="g3"
     transform="matrix(0.13359161,0,0,0.13359161,-3.9965e-7,2.0048776e-4)"
     style="fill:#0a90ea;fill-opacity:1"><g
       id="g5"
       style="fill:#0a90ea;fill-opacity:1"><path
         d="m 66.748,110.213 c 0.881,-0.43 1.737,-0.895 2.566,-1.359 0.421,0.555 0.861,1.086 1.379,1.595 l 48.531,48.542 c 3.037,-3.562 7.508,-5.806 12.354,-5.806 1.569,0 3.131,0.225 4.635,0.673 l 6.051,1.8 3.766,-12.67 L 92.091,89.045 C 91.235,88.199 90.315,87.488 89.322,86.88 l 0.127,-0.558 c 0.128,-0.513 0.294,-0.898 0.45,-1.341 0.124,-0.331 0.255,-0.678 0.378,-1.042 0.157,-0.353 0.313,-0.728 0.47,-1.119 0.268,-0.651 0.553,-1.357 0.919,-2.074 l 1.013,-2.057 1.154,-2.038 c 0.487,-0.936 1.037,-1.749 1.664,-2.679 0.336,-0.492 0.673,-1.004 1.016,-1.523 0.303,-0.405 0.621,-0.818 0.934,-1.246 0.786,-1.037 1.519,-2.021 2.315,-2.872 l 0.556,-0.613 c 1.053,-1.149 2.106,-2.337 3.332,-3.349 0.39,-0.348 0.684,-0.618 0.994,-0.892 0.414,-0.386 0.834,-0.78 1.282,-1.133 l 2.364,-1.718 c 0.08,-0.046 0.134,-0.096 0.187,-0.148 0.946,-0.755 2.081,-1.395 3.294,-2.071 0.486,-0.265 0.957,-0.528 1.434,-0.812 1.015,-0.651 2.062,-1.072 3.176,-1.518 0.562,-0.236 1.111,-0.46 1.673,-0.701 0.323,-0.128 0.654,-0.277 0.979,-0.421 0.353,-0.145 0.7,-0.32 1.053,-0.408 l 2.6,-0.73 c 0.516,-0.128 1.116,-0.301 1.721,-0.476 0.845,-0.247 1.663,-0.481 2.213,-0.555 l 6.96,-1.018 c 1.013,-0.147 1.91,-0.618 2.601,-1.3 0.754,-0.763 1.26,-1.795 1.331,-2.93 0.149,-2.164 -1.226,-4.142 -3.304,-4.752 l -6.859,-1.951 c -1.193,-0.358 -2.46,-0.544 -3.681,-0.723 -0.544,-0.084 -1.1,-0.164 -1.688,-0.262 l -3.003,-0.465 c -0.942,-0.153 -1.825,-0.175 -2.611,-0.191 -0.309,-0.011 -0.621,-0.017 -0.946,-0.033 -0.786,-0.011 -1.356,-0.042 -1.944,-0.069 -1.749,-0.073 -3.727,-0.15 -5.829,0.124 l -1.331,0.107 c -2.012,0.167 -4.316,0.353 -6.63,0.908 l -3.71,0.75 c -1.141,0.282 -2.096,0.577 -3.053,0.875 l -1.171,0.358 c -2.683,0.744 -5.22,1.809 -7.677,2.845 L 83.738,45.2 c -2.107,0.873 -4.02,1.893 -5.869,2.878 l -1.534,0.817 c -0.107,0.053 -0.189,0.114 -0.296,0.17 -0.593,0.369 -1.2,0.733 -1.789,1.092 -1.601,0.969 -3.268,1.973 -4.808,3.117 l -2.566,1.831 c -0.054,0.046 -0.306,0.229 -0.369,0.281 l -2.539,2.027 c -0.684,0.528 -1.315,1.064 -1.92,1.593 -4.573,0.761 -8.967,2.883 -12.49,6.416 L 44.121,70.85 C 41.618,73.356 39.27,76.87 37.336,80.807 28.813,79.17 17.248,91.756 0,108.999 l 38.569,38.55 C 51.792,134.32 68.396,118.736 66.748,110.213 z"
         id="path7"
         inkscape:connector-curvature="0"
         style="fill:#0a90ea;fill-opacity:1" /><path
         d="m 369.185,107.822 24.298,4.7 24.731,-31.226 c 4.516,-5.666 12.027,-8.26 19.037,-6.602 V 61.247 h -36.526 v 29.22 h -39.338 l 7.798,17.355 z"
         id="path9"
         inkscape:connector-curvature="0"
         style="fill:#0a90ea;fill-opacity:1" /><polygon
         points="148.68,115.712 156.178,90.462 123.438,90.462 "
         id="polygon11"
         style="fill:#0a90ea;fill-opacity:1" /><path
         d="m 437.251,247.502 v -93.598 c -0.657,0.9 -1.308,1.809 -2.008,2.689 -10.165,12.837 -23.654,22.076 -38.773,26.996 h 4.269 v 63.913 h -85.617 -12.244 l 45.855,-62.523 c 0.832,-1.064 1.598,-2.164 2.308,-3.289 25.619,6.421 53.806,-2.131 71.241,-24.134 12.721,-16.061 17.668,-36.797 13.56,-56.904 -0.456,-2.279 -2.205,-4.082 -4.46,-4.626 -2.268,-0.534 -4.636,0.284 -6.087,2.101 l -29.557,37.316 -38.427,-7.439 -16.044,-35.71 29.57,-37.319 c 1.447,-1.82 1.699,-4.32 0.657,-6.394 -1.045,-2.082 -3.196,-3.366 -5.514,-3.301 -20.521,0.605 -39.579,10.16 -52.304,26.22 -17.415,21.992 -19.298,51.371 -7.218,74.832 -0.914,0.963 -1.812,1.984 -2.676,3.07 l -59.339,70.592 14.361,14.363 c 3.721,3.721 6.323,8.23 7.714,13.144 h -6.402 c -1.171,-3.223 -3.021,-6.249 -5.615,-8.836 l -81.683,-81.698 -2.123,7.122 5.535,1.647 c 4.165,1.233 7.598,4.016 9.666,7.833 2.066,3.816 2.525,8.216 1.289,12.377 -0.667,2.23 -1.812,4.287 -3.324,6.024 0.427,3.817 0.102,7.683 -1.023,11.401 l -7.335,24.704 19.426,19.414 h -6.224 -13.596 -13.644 l 14.424,-48.561 c 1.239,-4.134 1.134,-8.353 -0.026,-12.197 2.032,-1.037 3.664,-2.876 4.369,-5.239 1.352,-4.578 -1.256,-9.398 -5.839,-10.753 l -12.821,-3.817 34.85,-117.3 1.097,0.326 9.028,-17.478 3.541,-27.259 -15.046,-4.465 -11.71,24.84 -1.881,19.597 1.114,0.332 -34.851,117.307 -13.344,-3.963 c -4.567,-1.36 -9.396,1.25 -10.753,5.828 -0.654,2.213 -0.385,4.476 0.584,6.388 -3.21,2.605 -5.71,6.181 -6.978,10.444 L 97.65,247.502 H 84.605 79.338 v -63.907 h 24.253 l 4.335,-14.613 c 1.092,-3.661 1.839,-4.668 4.017,-7.721 L 72.79,121.146 c -5.362,7.384 -10.671,15.045 -18.929,23.242 l -11.04,11.029 v 92.085 H 30.942 v 127.837 c 0,40.335 32.715,73.042 73.056,73.042 H 376.09 c 40.346,0 73.04,-32.702 73.04,-73.042 V 247.502 H 437.251 z M 150.54,202.099 c 1.44,-4.865 6.551,-7.627 11.416,-6.188 4.844,1.443 7.62,6.553 6.175,11.414 l -11.927,40.178 h -19.151 l 13.487,-45.404 z m -29.586,-8.787 c 1.441,-4.857 6.553,-7.626 11.414,-6.187 4.859,1.442 7.628,6.551 6.182,11.409 l -14.544,48.969 h -19.147 l 16.095,-54.191 z"
         id="path13"
         inkscape:connector-curvature="0"
         style="fill:#0a90ea;fill-opacity:1" /><path
         d="m 197.928,90.462 -14.131,47.568 45.573,45.565 h 24.428 l 40.63,-48.329 c -5.58,-14.43 -6.841,-29.968 -4.077,-44.805 h -92.423 z"
         id="path15"
         inkscape:connector-curvature="0"
         style="fill:#0a90ea;fill-opacity:1" /></g></g><g
     id="g17"
     transform="translate(0,-389.129)" /><g
     id="g19"
     transform="translate(0,-389.129)" /><g
     id="g21"
     transform="translate(0,-389.129)" /><g
     id="g23"
     transform="translate(0,-389.129)" /><g
     id="g25"
     transform="translate(0,-389.129)" /><g
     id="g27"
     transform="translate(0,-389.129)" /><g
     id="g29"
     transform="translate(0,-389.129)" /><g
     id="g31"
     transform="translate(0,-389.129)" /><g
     id="g33"
     transform="translate(0,-389.129)" /><g
     id="g35"
     transform="translate(0,-389.129)" /><g
     id="g37"
     transform="translate(0,-389.129)" /><g
     id="g39"
     transform="translate(0,-389.129)" /><g
     id="g41"
     transform="translate(0,-389.129)" /><g
     id="g43"
     transform="translate(0,-389.129)" /><g
     id="g45"
     transform="translate(0,-389.129)" /></svg>